<svg xmlns="http://www.w3.org/2000/svg" xmlns:xlink="http://www.w3.org/1999/xlink" viewBox="0 0 20.5 15.15"><defs><style>.cls-1,.cls-2,.cls-3,.cls-4,.cls-5,.cls-6,.cls-7{fill-rule:evenodd;}.cls-1{fill:url(#linear-gradient);}.cls-2{fill:url(#linear-gradient-2);}.cls-3{fill:url(#linear-gradient-3);}.cls-4{fill:url(#radial-gradient);}.cls-5{fill:url(#linear-gradient-4);}.cls-6{fill:url(#radial-gradient-2);}.cls-7{fill:url(#linear-gradient-5);}</style><linearGradient id="linear-gradient" x1="0.06" y1="-9530.23" x2="5.27" y2="-9532.88" gradientTransform="translate(0 9538.15)" gradientUnits="userSpaceOnUse"><stop offset="0.23" stop-color="#0d8ac7"/><stop offset="0.38" stop-color="#0f8ec9"/><stop offset="0.55" stop-color="#159bd1"/><stop offset="0.71" stop-color="#1fb0dd"/><stop offset="0.88" stop-color="#2dcdee"/><stop offset="1" stop-color="#39e6fd"/></linearGradient><linearGradient id="linear-gradient-2" x1="4.77" y1="-9528.81" x2="12.33" y2="-9533.17" gradientTransform="translate(0 9538.15)" gradientUnits="userSpaceOnUse"><stop offset="0.23" stop-color="#0d8ac7"/><stop offset="0.37" stop-color="#1294cd"/><stop offset="0.61" stop-color="#1eaedc"/><stop offset="0.91" stop-color="#32d8f5"/><stop offset="1" stop-color="#39e6fd"/></linearGradient><linearGradient id="linear-gradient-3" x1="15.51" y1="-9532.81" x2="18.75" y2="-9527.19" gradientTransform="translate(0 9538.15)" gradientUnits="userSpaceOnUse"><stop offset="0.16" stop-color="#0991d5"/><stop offset="0.2" stop-color="#0c97d8"/><stop offset="0.43" stop-color="#20b9e8"/><stop offset="0.64" stop-color="#2ed2f4"/><stop offset="0.84" stop-color="#36e1fb"/><stop offset="1" stop-color="#39e6fd"/></linearGradient><radialGradient id="radial-gradient" cx="12.17" cy="-8726.45" r="6.15" gradientTransform="translate(0 8728.82)" gradientUnits="userSpaceOnUse"><stop offset="0.77" stop-color="#37cef9"/><stop offset="0.84" stop-color="#62dffb"/><stop offset="0.91" stop-color="#87edfd"/><stop offset="0.96" stop-color="#9df6fe"/><stop offset="1" stop-color="#a5f9fe"/></radialGradient><linearGradient id="linear-gradient-4" x1="3.8" y1="-8725.88" x2="20.5" y2="-8725.88" gradientTransform="translate(0 8728.82)" gradientUnits="userSpaceOnUse"><stop offset="0" stop-color="#a5f9fe"/><stop offset="0.12" stop-color="#57b2cf"/><stop offset="0.23" stop-color="#1878aa"/><stop offset="0.28" stop-color="#00629b"/><stop offset="0.46" stop-color="#03649d"/><stop offset="0.58" stop-color="#0b6ca2"/><stop offset="0.67" stop-color="#1a79aa"/><stop offset="0.75" stop-color="#2e8cb7"/><stop offset="0.83" stop-color="#49a5c7"/><stop offset="0.9" stop-color="#6ac3da"/><stop offset="0.97" stop-color="#90e6f1"/><stop offset="1" stop-color="#a5f9fe"/></linearGradient><radialGradient id="radial-gradient-2" cx="-3544.12" cy="-312.33" r="6.13" gradientTransform="translate(-3657.46 -254.51) rotate(180) scale(1.03 0.86)" gradientUnits="userSpaceOnUse"><stop offset="0.59" stop-color="#c1dce7"/><stop offset="1" stop-color="#ebf8f9"/></radialGradient><linearGradient id="linear-gradient-5" x1="1.72" y1="-9524.89" x2="19.02" y2="-9524.89" gradientTransform="translate(0 9538.15)" gradientUnits="userSpaceOnUse"><stop offset="0.44" stop-color="#6c9fb6"/><stop offset="0.86" stop-color="#9dcce2"/></linearGradient></defs><g id="Layer_2" data-name="Layer 2"><g id="svg"><path class="cls-1" d="M.2,3.59a.22.22,0,0,0-.2.2v1.1a.22.22,0,0,0,.2.2h2v5.4a.1.1,0,0,0,.1.1.35.35,0,0,0,.2.1,6.8,6.8,0,0,1,1.3-.4V5.09h2V3.59Z"/><path class="cls-2" d="M8.6,3.59H7.2c-.2,0-.4,0-.4.2v3.5c0,1.3,0,2.1-1.6,2.7a11.28,11.28,0,0,1,3.1.5h0l.3.1h0c2.9.2,4.3-1.5,4.3-3.5S11.7,3.59,8.6,3.59Zm-.2,5.6V5c2.2,0,3.1.7,3.1,2.1C11.5,8.89,10.3,9.19,8.4,9.19Z"/><path class="cls-3" d="M16.9,4.59l-4,5.7c-.1.1,0,.3.2.3h6.3a.43.43,0,0,0,.4-.4v-1a.22.22,0,0,0-.2-.2h-4l4.2-5.9Z"/><path class="cls-4" d="M3.8,3A6.06,6.06,0,0,1,5.7,1,6.26,6.26,0,0,1,9.9.09a7.61,7.61,0,0,1,3.2,1.5,6.87,6.87,0,0,0,2.3,1.3,3,3,0,0,0,.9.2,5.17,5.17,0,0,0,4.2-1.5,4.49,4.49,0,0,1-4.8,3.3c-2.3-.1-3.7-1.2-6.3-2.2A6.12,6.12,0,0,0,3.8,3Z"/><path class="cls-5" d="M10.9,1.89c6,4.3,8.9.4,9.6-.4a4.48,4.48,0,0,1-4.6,3.3c-2.8,0-3.6-1.1-6.2-2.1a8,8,0,0,0-3-.6A6.92,6.92,0,0,0,3.8,3a5.66,5.66,0,0,1,7.1-1.1"/><path class="cls-6" d="M5.3,12.49a5.65,5.65,0,0,0-2.4-.1,3.34,3.34,0,0,0-1.2.5c.3-.4,1.7-2.4,5.1-1.7S10.9,13,14.2,13a8.86,8.86,0,0,0,4.8-1.6,7.61,7.61,0,0,1-2.6,2.5,7.67,7.67,0,0,1-5.1,1.2,12.28,12.28,0,0,1-3.6-1.4A8.8,8.8,0,0,0,5.3,12.49Z"/><path class="cls-7" d="M1.7,12.89a5.49,5.49,0,0,1,5.6-.6c.3.2,1.3.6,1.6.8a6.71,6.71,0,0,0,4.3.9c3.4-.6,3.9-1.1,5.8-2.6a7.9,7.9,0,0,1-4.8,3.5,7.78,7.78,0,0,1-4.9-.4c-1.2-.5-1.7-.9-3.4-1.8A5.1,5.1,0,0,0,1.7,12.89Z"/></g></g></svg>